<?xml version="1.0" encoding="utf-8"?>
<svg xmlns="http://www.w3.org/2000/svg" fill="none" viewBox="0 0 261 82" height="82" width="261">
<path fill="white" d="M119.622 39.0059H124.949V65.9354H139.346L138.937 70.5365H119.622V39.0059Z"/>
<path fill="white" d="M151.088 51.4756C149.622 51.4701 148.196 51.9587 147.042 52.8625C145.82 53.7947 145.061 55.266 144.765 57.2762H155.053C155.985 57.2762 156.451 56.8567 156.451 56.0175C156.451 54.8443 155.957 53.792 154.969 52.8609C153.981 51.9297 152.688 51.4679 151.088 51.4756ZM151.946 70.9777C149.628 70.9777 147.559 70.4847 145.741 69.4988C143.955 68.5385 142.473 67.1006 141.46 65.3463C140.423 63.5749 139.903 61.5175 139.902 59.1742C139.901 56.831 140.413 54.7895 141.439 53.0498C142.429 51.3401 143.867 49.9314 145.598 48.9745C147.363 47.9934 149.354 47.4888 151.375 47.5104C153.389 47.5104 155.134 47.9683 156.609 48.8842C158.015 49.7331 159.186 50.9194 160.015 52.335C160.783 53.6152 161.195 55.0762 161.21 56.5681C161.21 58.0404 160.804 59.1441 159.99 59.8792C159.177 60.6143 158.094 60.9823 156.743 60.9834H144.872C145.201 62.8458 146.052 64.3023 147.424 65.3529C148.797 66.4035 150.443 66.9292 152.364 66.9303C155.041 66.9303 157.327 66.0594 159.223 64.3176L161.299 67.3806C160.106 68.5753 158.666 69.497 157.08 70.0821C155.437 70.6882 153.698 70.9933 151.946 70.9826V70.9777Z"/>
<path fill="white" d="M168.531 63.5966C168.531 64.7403 168.93 65.6167 169.728 66.2258C170.526 66.8349 171.525 67.1428 172.724 67.1493C173.668 67.1603 174.603 66.9528 175.454 66.543C176.256 66.1582 176.947 65.5771 177.463 64.8538C177.97 64.1453 178.239 63.2942 178.23 62.4234V60.6158C177.509 60.3368 176.761 60.1308 175.999 60.0012C175.216 59.8668 174.424 59.7987 173.629 59.7975C171.944 59.7975 170.673 60.1579 169.816 60.8788C169.407 61.2011 169.079 61.6133 168.857 62.0832C168.634 62.5562 168.523 63.0739 168.531 63.5966ZM171.194 70.9912C168.878 70.9912 166.982 70.3542 165.506 69.0802C164.031 67.8061 163.294 66.1169 163.295 64.0124C163.273 62.6139 163.691 61.2437 164.49 60.0949C165.338 58.9145 166.493 57.9877 167.83 57.4148C169.257 56.7684 170.904 56.4458 172.77 56.4469C173.754 56.4464 174.735 56.536 175.703 56.7147C176.573 56.867 177.423 57.1236 178.232 57.4788V56.529C178.232 55.0271 177.728 53.8412 176.72 52.9714C175.712 52.1016 174.307 51.6683 172.503 51.6716C171.245 51.6649 169.997 51.8939 168.824 52.3469C167.649 52.8092 166.558 53.464 165.598 54.2843L163.613 51.223C166.247 48.8438 169.674 47.5267 173.228 47.5273C175.335 47.5273 177.14 47.9179 178.642 48.699C180.081 49.4174 181.282 50.5352 182.1 51.9181C182.907 53.3217 183.32 54.916 183.297 56.5339V70.5378H178.782L178.604 67.4764C177.912 68.4623 176.934 69.296 175.67 69.9774C174.405 70.6588 172.913 70.9946 171.194 70.9848V70.9912Z"/>
<path fill="white" d="M197.389 66.8396C199.164 66.8396 200.677 66.1637 201.926 64.8118C203.175 63.46 203.798 61.5385 203.795 59.0473C203.795 56.7358 203.222 54.9282 202.077 53.6246C201.556 52.9994 200.901 52.4989 200.16 52.1599C199.419 51.8209 198.611 51.6521 197.796 51.6658C196.08 51.6658 194.681 52.2508 193.597 53.4208C192.514 54.5908 191.974 56.0775 191.98 57.8806V64.4979C193.359 66.059 195.162 66.8396 197.389 66.8396ZM186.831 61.1819V47.9685H191.442L191.623 51.6625C192.324 50.3907 193.373 49.3439 194.648 48.6439C195.981 47.8897 197.49 47.5014 199.023 47.5183C200.841 47.4959 202.628 47.9961 204.169 48.9594C205.718 49.9424 206.971 51.3279 207.791 52.9673C208.68 54.6795 209.123 56.6465 209.122 58.8682C209.122 61.3035 208.633 63.4276 207.656 65.2407C206.759 66.9744 205.412 68.4366 203.757 69.4753C202.148 70.4778 200.286 71.0011 198.389 70.9839C197.182 70.9942 195.983 70.7963 194.844 70.3989C193.765 70.0199 192.785 69.4019 191.98 68.5913V79.537H186.837V61.1819"/>
<path fill="white" d="M26.2794 39.0098L15.795 55.9352L5.3089 39.0098H0V70.524H5.26938V47.9079L14.2784 62.3143H17.3083L26.3189 47.9079V70.524H31.5801V39.0098H26.2794Z"/>
<path fill="white" d="M39.9109 63.5951C39.9109 64.7388 40.3099 65.6152 41.108 66.2243C41.9061 66.8334 42.9045 67.1408 44.1033 67.1463C45.0481 67.1572 45.9826 66.9497 46.8335 66.5399C47.6381 66.1566 48.3317 65.5752 48.849 64.8506C49.3559 64.1419 49.624 63.2909 49.6147 62.4202V60.6126C48.8918 60.3318 48.142 60.1259 47.3769 59.9981C46.5942 59.8638 45.8015 59.7956 45.0073 59.7943C43.3244 59.7943 42.0537 60.1547 41.1952 60.8756C40.7882 61.1992 40.4608 61.6115 40.2382 62.0809C40.0155 62.5503 39.9036 63.0644 39.9109 63.5837V63.5951ZM42.5752 70.9898C40.2545 70.9898 38.3591 70.3522 36.8892 69.0771C35.4192 67.8019 34.6821 66.1132 34.6777 64.0109C34.6534 62.6126 35.0692 61.2419 35.8666 60.0918C36.7139 58.9104 37.8695 57.9834 39.2077 57.4116C40.6348 56.7642 42.2815 56.4416 44.1478 56.4438C45.131 56.4433 46.1121 56.533 47.0788 56.7116C47.9496 56.8648 48.7989 57.1218 49.6082 57.4773V56.5275C49.6082 55.0289 49.1043 53.8435 48.0965 52.9715C47.0871 52.099 45.6841 51.6652 43.8777 51.6652C42.6194 51.6583 41.3709 51.8874 40.1974 52.3405C39.0216 52.8018 37.9317 53.4567 36.9732 54.2779L34.9971 51.2133C37.631 48.8337 41.0575 47.5164 44.6105 47.5176C46.7182 47.5176 48.5225 47.9081 50.0232 48.6892C51.4621 49.408 52.6628 50.5258 53.4812 51.9084C54.2899 53.3125 54.704 54.9082 54.6799 56.5275V70.5363H50.1615L49.982 67.4749C49.2926 68.4729 48.315 69.306 47.0492 69.9743C45.7835 70.6426 44.2921 70.9789 42.5752 70.9833V70.9898Z"/>
<path fill="white" d="M68.7474 66.1206C70.4325 66.1206 71.8015 65.58 72.8542 64.4987C73.907 63.4175 74.4334 62.0514 74.4334 60.4005V53.4643C73.7401 52.8631 72.9349 52.4042 72.0638 52.1136C71.1522 51.8085 70.1963 51.6563 69.2349 51.6633C68.3657 51.6467 67.5028 51.8125 66.702 52.1499C65.9012 52.4873 65.1804 52.9888 64.5863 53.6221C63.3227 54.929 62.6904 56.7366 62.6893 59.0448C62.6893 61.1777 63.2612 62.889 64.4051 64.1784C64.9394 64.8027 65.6063 65.3005 66.3573 65.6356C67.1084 65.9707 67.9249 66.1348 68.7474 66.1158V66.1206ZM67.8895 79.993C65.9432 80.0024 64.0109 79.6646 62.1837 78.9955C60.453 78.3695 58.8649 77.4053 57.5122 76.1593L59.5869 72.8252C60.6504 73.7623 61.8735 74.5019 63.1981 75.009C64.6402 75.5501 66.1711 75.817 67.7117 75.7961C69.5461 75.7961 71.1258 75.3086 72.4508 74.3336C73.7758 73.3586 74.4373 71.9099 74.4351 69.9873V67.0672C73.7465 68.0809 72.7955 68.8895 71.6834 69.4072C70.5077 69.979 69.1542 70.2644 67.6227 70.2633C65.8068 70.2839 64.0207 69.801 62.4637 68.8682C60.9095 67.9355 59.6324 66.6066 58.7636 65.018C57.8469 63.3835 57.3881 61.4845 57.387 59.3209C57.387 57.0401 57.8755 55.0134 58.8525 53.2409C59.7804 51.5185 61.1484 50.0717 62.8177 49.0473C64.4784 48.0273 66.394 47.4958 68.344 47.5141C69.5339 47.5122 70.7157 47.7099 71.8399 48.0991C72.9323 48.4671 73.9401 49.0493 74.8039 49.8114L74.9866 47.971H79.5974V69.7687C79.5974 72.0802 79.0424 73.9945 77.9326 75.5118C76.8328 77.0174 75.3342 78.1874 73.6051 78.8903C71.7928 79.6331 69.8503 80.0079 67.8911 79.993H67.8895Z"/>
<path fill="white" d="M83.324 70.537V47.967H88.4748V70.537H83.324ZM85.8993 44.1464C85.4589 44.16 85.0202 44.0853 84.6092 43.9267C84.1983 43.7681 83.8234 43.5287 83.5067 43.2229C82.8995 42.6022 82.5596 41.7692 82.5596 40.9018C82.5596 40.0344 82.8995 39.2014 83.5067 38.5807C84.1632 37.9892 85.0165 37.6625 85.9009 37.6641C86.7853 37.6656 87.6376 37.9952 88.292 38.589C88.76 39.047 89.0782 39.6355 89.205 40.2773C89.3318 40.9191 89.2612 41.5842 89.0025 42.1852C88.7437 42.7862 88.3088 43.2951 87.7551 43.6451C87.2013 43.9951 86.5544 44.1698 85.8993 44.1464Z"/>
<path fill="white" d="M103.166 70.9836C101.106 71.0074 99.0713 70.5291 97.2383 69.5902C95.467 68.6746 93.9849 67.2866 92.9569 65.5806C91.8899 63.8366 91.3563 61.7327 91.3563 59.2689C91.3563 56.9574 91.9052 54.9154 93.003 53.1429C94.071 51.4016 95.5809 49.9725 97.3799 49.0003C99.0043 48.1303 100.801 47.6286 102.642 47.5312C104.483 47.4338 106.323 47.7429 108.031 48.4366C109.399 48.987 110.625 49.8386 111.617 50.9278L109.406 54.1272C108.605 53.4343 107.698 52.8735 106.72 52.4659C105.753 52.0715 104.718 51.8726 103.673 51.8809C102.476 51.8722 101.296 52.1667 100.243 52.737C99.1769 53.3204 98.2885 54.1813 97.673 55.2282C97.0055 56.3237 96.6724 57.6679 96.6735 59.2607C96.6735 60.8821 96.9962 62.2327 97.6417 63.3129C98.2461 64.3524 99.1296 65.2028 100.192 65.768C101.234 66.3201 102.397 66.6057 103.576 66.5994C105.685 66.5994 107.627 65.8484 109.402 64.3465L111.566 67.546C110.552 68.6308 109.313 69.4815 107.935 70.0388C106.426 70.6724 104.804 70.9939 103.166 70.9836Z"/>
<path fill="white" d="M220.678 46.6719V81.2179L225.924 78.2058V49.6954L220.678 46.6719Z"/>
<path fill="white" d="M185.648 20.3599L215.435 37.5236V31.4781L190.899 17.3379L185.648 20.3599Z"/>
<path fill="white" d="M225.913 34.5083L225.898 0L220.678 2.85435V35.9083C220.678 37.3297 221.053 38.7261 221.765 39.9571C222.476 41.1882 223.501 42.2106 224.734 42.9217L255.751 60.7905L261 57.7652L228.516 39.0502L260.956 20.3566L255.709 17.3331L225.913 34.5083Z" clip-rule="evenodd" fill-rule="evenodd"/>
</svg>